  0
SECTION
  2
BLOCKS
  0
ENDSEC
  0
SECTION
  2
ENTITIES
  0
LINE
  8
0
 10
0
 20
0.05
 11
89.5
 21
0.05
  0
LINE
  8
0
 10
89.5
 20
0.05
 11
89.5
 21
2.95
  0
LINE
  8
0
 10
89.5
 20
2.95
 11
87
 21
2.95
  0
LINE
  8
0
 10
87
 20
2.95
 11
87
 21
4.14999
  0
LINE
  8
0
 10
87
 20
4.14999
 11
83.5
 21
4.14999
  0
LINE
  8
0
 10
83.5
 20
4.14999
 11
83.5
 21
2.95
  0
LINE
  8
0
 10
83.5
 20
2.95
 11
5.7
 21
2.95
  0
LINE
  8
0
 10
5.7
 20
2.95
 11
5.7
 21
3.5
  0
LINE
  8
0
 10
5.7
 20
3.5
 11
3.7
 21
3.5
  0
LINE
  8
0
 10
3.7
 20
3.5
 11
3.7
 21
4.60001
  0
LINE
  8
0
 10
3.7
 20
4.60001
 11
2.2
 21
4.60001
  0
LINE
  8
0
 10
2.2
 20
4.60001
 11
2.2
 21
8.78422
  0
LINE
  8
0
 10
2.2
 20
8.78422
 11
0
 21
8.78422
  0
LINE
  8
0
 10
0
 20
8.78422
 11
0
 21
0.05
  0
LINE
  8
0
 10
0
 20
13.6462
 11
2.2
 21
13.6462
  0
LINE
  8
0
 10
2.2
 20
13.6462
 11
2.2
 21
23.8491
  0
LINE
  8
0
 10
2.2
 20
23.8491
 11
0
 21
23.8491
  0
LINE
  8
0
 10
0
 20
23.8491
 11
0
 21
13.6462
  0
LINE
  8
0
 10
0
 20
28.711
 11
2.2
 21
28.711
  0
LINE
  8
0
 10
2.2
 20
28.711
 11
2.2
 21
36.9
  0
LINE
  8
0
 10
2.2
 20
36.9
 11
3.7
 21
36.9
  0
LINE
  8
0
 10
3.7
 20
36.9
 11
3.7
 21
38
  0
LINE
  8
0
 10
3.7
 20
38
 11
5.7
 21
38
  0
LINE
  8
0
 10
5.7
 20
38
 11
5.7
 21
39
  0
LINE
  8
0
 10
5.7
 20
39
 11
0
 21
39
  0
LINE
  8
0
 10
0
 20
39
 11
0
 21
28.711
  0
LINE
  8
0
 10
0
 20
43.7759
 11
2.2
 21
43.7759
  0
LINE
  8
0
 10
2.2
 20
43.7759
 11
2.2
 21
53.9788
  0
LINE
  8
0
 10
2.2
 20
53.9788
 11
0
 21
53.9788
  0
LINE
  8
0
 10
0
 20
53.9788
 11
0
 21
43.7759
  0
LINE
  8
0
 10
0
 20
56
 11
2.2
 21
56
  0
LINE
  8
0
 10
2.2
 20
56
 11
2.2
 21
56.0358
  0
LINE
  8
0
 10
2.2
 20
56.0358
 11
3.45
 21
56.0358
  0
LINE
  8
0
 10
3.45
 20
56.0358
 11
3.45
 21
56.82
  0
LINE
  8
0
 10
3.45
 20
56.82
 11
2.2
 21
56.82
  0
LINE
  8
0
 10
2.2
 20
56.82
 11
2.2
 21
58.0508
  0
LINE
  8
0
 10
2.2
 20
58.0508
 11
3.45
 21
58.0508
  0
LINE
  8
0
 10
3.45
 20
58.0508
 11
3.45
 21
58.8568
  0
LINE
  8
0
 10
3.45
 20
58.8568
 11
2.2
 21
58.8568
  0
LINE
  8
0
 10
2.2
 20
58.8568
 11
2.2
 21
60.0685
  0
LINE
  8
0
 10
2.2
 20
60.0685
 11
3.45
 21
60.0685
  0
LINE
  8
0
 10
3.45
 20
60.0685
 11
3.45
 21
60.8
  0
LINE
  8
0
 10
3.45
 20
60.8
 11
83.5
 21
60.8
  0
LINE
  8
0
 10
83.5
 20
60.8
 11
83.5
 21
59.6
  0
LINE
  8
0
 10
83.5
 20
59.6
 11
87
 21
59.6
  0
LINE
  8
0
 10
87
 20
59.6
 11
87
 21
60.8
  0
LINE
  8
0
 10
87
 20
60.8
 11
89.5
 21
60.8
  0
LINE
  8
0
 10
89.5
 20
60.8
 11
89.5
 21
63
  0
LINE
  8
0
 10
89.5
 20
63
 11
0
 21
63
  0
LINE
  8
0
 10
0
 20
63
 11
0
 21
56
  0
LINE
  8
0
 10
87.4
 20
3.25
 11
89.6
 21
3.25
  0
LINE
  8
0
 10
89.6
 20
3.25
 11
89.6
 21
60.5
  0
LINE
  8
0
 10
89.6
 20
60.5
 11
87.4
 21
60.5
  0
LINE
  8
0
 10
87.4
 20
60.5
 11
87.4
 21
3.25
  0
ENDSEC
  0
SECTION
  2
OBJECTS
  0
DICTIONARY
  0
ENDSEC
  0
EOF
