  0
SECTION
  2
BLOCKS
  0
ENDSEC
  0
SECTION
  2
ENTITIES
  0
LINE
  8
0
 10
0
 20
-62.5
 11
2.2
 21
-62.5
  0
LINE
  8
0
 10
2.2
 20
-62.5
 11
2.2
 21
-60
  0
LINE
  8
0
 10
2.2
 20
-60
 11
3.39999
 21
-60
  0
LINE
  8
0
 10
3.39999
 20
-60
 11
3.39999
 21
-56.5
  0
LINE
  8
0
 10
3.39999
 20
-56.5
 11
2.2
 21
-56.5
  0
LINE
  8
0
 10
2.2
 20
-56.5
 11
2.2
 21
-52
  0
LINE
  8
0
 10
2.2
 20
-52
 11
2.1
 21
-52
  0
LINE
  8
0
 10
2.1
 20
-52
 11
2.1
 21
-10.5
  0
LINE
  8
0
 10
2.1
 20
-10.5
 11
2.2
 21
-10.5
  0
LINE
  8
0
 10
2.2
 20
-10.5
 11
2.2
 21
-2.2
  0
LINE
  8
0
 10
2.2
 20
-2.2
 11
4.71474
 21
-2.2
  0
LINE
  8
0
 10
4.71474
 20
-2.2
 11
4.71474
 21
-10.5
  0
LINE
  8
0
 10
4.71474
 20
-10.5
 11
7.28525
 21
-10.5
  0
LINE
  8
0
 10
7.28525
 20
-10.5
 11
7.28525
 21
-2.2
  0
LINE
  8
0
 10
7.28525
 20
-2.2
 11
82.7147
 21
-2.2
  0
LINE
  8
0
 10
82.7147
 20
-2.2
 11
82.7147
 21
-5.5
  0
LINE
  8
0
 10
82.7147
 20
-5.5
 11
85.2853
 21
-5.5
  0
LINE
  8
0
 10
85.2853
 20
-5.5
 11
85.2853
 21
-2.2
  0
LINE
  8
0
 10
85.2853
 20
-2.2
 11
87.8
 21
-2.2
  0
LINE
  8
0
 10
87.8
 20
-2.2
 11
87.8
 21
-56.5
  0
LINE
  8
0
 10
87.8
 20
-56.5
 11
86.9
 21
-56.5
  0
LINE
  8
0
 10
86.9
 20
-56.5
 11
86.9
 21
-57
  0
LINE
  8
0
 10
86.9
 20
-57
 11
86.6
 21
-57
  0
LINE
  8
0
 10
86.6
 20
-57
 11
86.6
 21
-60
  0
LINE
  8
0
 10
86.6
 20
-60
 11
87.8
 21
-60
  0
LINE
  8
0
 10
87.8
 20
-60
 11
87.8
 21
-62.5
  0
LINE
  8
0
 10
87.8
 20
-62.5
 11
90
 21
-62.5
  0
LINE
  8
0
 10
90
 20
-62.5
 11
90
 21
0
  0
LINE
  8
0
 10
90
 20
0
 11
0
 21
0
  0
LINE
  8
0
 10
0
 20
0
 11
0
 21
-62.5
  0
LINE
  8
0
 10
2.5
 20
-62.6
 11
87.5
 21
-62.6
  0
LINE
  8
0
 10
87.5
 20
-62.6
 11
87.5
 21
-60.4
  0
LINE
  8
0
 10
87.5
 20
-60.4
 11
2.5
 21
-60.4
  0
LINE
  8
0
 10
2.5
 20
-60.4
 11
2.5
 21
-62.6
  0
LINE
  8
0
 10
4.71474
 20
-59.7
 11
7.28525
 21
-59.7
  0
LINE
  8
0
 10
7.28525
 20
-59.7
 11
7.28525
 21
-52
  0
LINE
  8
0
 10
7.28525
 20
-52
 11
4.71474
 21
-52
  0
LINE
  8
0
 10
4.71474
 20
-52
 11
4.71474
 21
-59.7
  0
LINE
  8
0
 10
82.7147
 20
-59.7
 11
85.2853
 21
-59.7
  0
LINE
  8
0
 10
85.2853
 20
-59.7
 11
85.2853
 21
-57
  0
LINE
  8
0
 10
85.2853
 20
-57
 11
82.7147
 21
-57
  0
LINE
  8
0
 10
82.7147
 20
-57
 11
82.7147
 21
-59.7
  0
ENDSEC
  0
SECTION
  2
OBJECTS
  0
DICTIONARY
  0
ENDSEC
  0
EOF
