  0
SECTION
  2
BLOCKS
  0
ENDSEC
  0
SECTION
  2
ENTITIES
  0
LINE
  8
0
 10
-8
 20
2.75
 11
-7.99037
 21
2.55397
  0
LINE
  8
0
 10
-7.99037
 20
2.55397
 11
-7.96156
 21
2.35982
  0
LINE
  8
0
 10
-7.96156
 20
2.35982
 11
-7.91388
 21
2.16943
  0
LINE
  8
0
 10
-7.91388
 20
2.16943
 11
-7.84776
 21
1.98463
  0
LINE
  8
0
 10
-7.84776
 20
1.98463
 11
-7.76384
 21
1.80721
  0
LINE
  8
0
 10
-7.76384
 20
1.80721
 11
-7.66293
 21
1.63885
  0
LINE
  8
0
 10
-7.66293
 20
1.63885
 11
-7.54602
 21
1.48122
  0
LINE
  8
0
 10
-7.54602
 20
1.48122
 11
-7.41422
 21
1.33578
  0
LINE
  8
0
 10
-7.41422
 20
1.33578
 11
-7.26878
 21
1.20398
  0
LINE
  8
0
 10
-7.26878
 20
1.20398
 11
-7.11115
 21
1.08707
  0
LINE
  8
0
 10
-7.11115
 20
1.08707
 11
-6.94279
 21
0.98616
  0
LINE
  8
0
 10
-6.94279
 20
0.98616
 11
-6.76537
 21
0.902237
  0
LINE
  8
0
 10
-6.76537
 20
0.902237
 11
-6.58057
 21
0.836121
  0
LINE
  8
0
 10
-6.58057
 20
0.836121
 11
-6.39018
 21
0.788437
  0
LINE
  8
0
 10
-6.39018
 20
0.788437
 11
-6.19603
 21
0.759628
  0
LINE
  8
0
 10
-6.19603
 20
0.759628
 11
-6
 21
0.75
  0
LINE
  8
0
 10
-6
 20
0.75
 11
0
 21
0.75
  0
LINE
  8
0
 10
0
 20
0.75
 11
0
 21
-0.95
  0
LINE
  8
0
 10
0
 20
-0.95
 11
7.5
 21
-0.95
  0
LINE
  8
0
 10
7.5
 20
-0.95
 11
9.5
 21
-3.95
  0
LINE
  8
0
 10
9.5
 20
-3.95
 11
22
 21
-3.95
  0
LINE
  8
0
 10
22
 20
-3.95
 11
22
 21
0.05
  0
LINE
  8
0
 10
22
 20
0.05
 11
61
 21
0.05
  0
LINE
  8
0
 10
61
 20
0.05
 11
58
 21
-3.15
  0
LINE
  8
0
 10
58
 20
-3.15
 11
58.2
 21
-3.45
  0
LINE
  8
0
 10
58.2
 20
-3.45
 11
58.2
 21
-3.95
  0
LINE
  8
0
 10
58.2
 20
-3.95
 11
62.5
 21
-3.95
  0
LINE
  8
0
 10
62.5
 20
-3.95
 11
66
 21
-0.95
  0
LINE
  8
0
 10
66
 20
-0.95
 11
85
 21
-0.95
  0
LINE
  8
0
 10
85
 20
-0.95
 11
85
 21
2
  0
LINE
  8
0
 10
85
 20
2
 11
93
 21
2
  0
LINE
  8
0
 10
93
 20
2
 11
93
 21
14
  0
LINE
  8
0
 10
93
 20
14
 11
85
 21
14
  0
LINE
  8
0
 10
85
 20
14
 11
85
 21
16
  0
LINE
  8
0
 10
85
 20
16
 11
84.45
 21
16
  0
LINE
  8
0
 10
84.45
 20
16
 11
84.45
 21
25.2
  0
LINE
  8
0
 10
84.45
 20
25.2
 11
85
 21
25.2
  0
LINE
  8
0
 10
85
 20
25.2
 11
85
 21
41
  0
LINE
  8
0
 10
85
 20
41
 11
84.9904
 21
41.196
  0
LINE
  8
0
 10
84.9904
 20
41.196
 11
84.9616
 21
41.3902
  0
LINE
  8
0
 10
84.9616
 20
41.3902
 11
84.9139
 21
41.5806
  0
LINE
  8
0
 10
84.9139
 20
41.5806
 11
84.8478
 21
41.7654
  0
LINE
  8
0
 10
84.8478
 20
41.7654
 11
84.7638
 21
41.9428
  0
LINE
  8
0
 10
84.7638
 20
41.9428
 11
84.6629
 21
42.1111
  0
LINE
  8
0
 10
84.6629
 20
42.1111
 11
84.546
 21
42.2688
  0
LINE
  8
0
 10
84.546
 20
42.2688
 11
84.4142
 21
42.4142
  0
LINE
  8
0
 10
84.4142
 20
42.4142
 11
84.2688
 21
42.546
  0
LINE
  8
0
 10
84.2688
 20
42.546
 11
84.1111
 21
42.6629
  0
LINE
  8
0
 10
84.1111
 20
42.6629
 11
83.9428
 21
42.7638
  0
LINE
  8
0
 10
83.9428
 20
42.7638
 11
83.7654
 21
42.8478
  0
LINE
  8
0
 10
83.7654
 20
42.8478
 11
83.5806
 21
42.9139
  0
LINE
  8
0
 10
83.5806
 20
42.9139
 11
83.3902
 21
42.9616
  0
LINE
  8
0
 10
83.3902
 20
42.9616
 11
83.196
 21
42.9904
  0
LINE
  8
0
 10
83.196
 20
42.9904
 11
83
 21
43
  0
LINE
  8
0
 10
83
 20
43
 11
76
 21
43
  0
LINE
  8
0
 10
76
 20
43
 11
76
 21
42.35
  0
LINE
  8
0
 10
76
 20
42.35
 11
66.8
 21
42.35
  0
LINE
  8
0
 10
66.8
 20
42.35
 11
66.8
 21
43
  0
LINE
  8
0
 10
66.8
 20
43
 11
65.049
 21
43
  0
LINE
  8
0
 10
65.049
 20
43
 11
65.0023
 21
43.0023
  0
LINE
  8
0
 10
65.0023
 20
43.0023
 11
65
 21
43.049
  0
LINE
  8
0
 10
65
 20
43.049
 11
65
 21
61
  0
LINE
  8
0
 10
65
 20
61
 11
64.9904
 21
61.196
  0
LINE
  8
0
 10
64.9904
 20
61.196
 11
64.9616
 21
61.3902
  0
LINE
  8
0
 10
64.9616
 20
61.3902
 11
64.9139
 21
61.5806
  0
LINE
  8
0
 10
64.9139
 20
61.5806
 11
64.8478
 21
61.7654
  0
LINE
  8
0
 10
64.8478
 20
61.7654
 11
64.7638
 21
61.9428
  0
LINE
  8
0
 10
64.7638
 20
61.9428
 11
64.6629
 21
62.1111
  0
LINE
  8
0
 10
64.6629
 20
62.1111
 11
64.546
 21
62.2688
  0
LINE
  8
0
 10
64.546
 20
62.2688
 11
64.4142
 21
62.4142
  0
LINE
  8
0
 10
64.4142
 20
62.4142
 11
64.2688
 21
62.546
  0
LINE
  8
0
 10
64.2688
 20
62.546
 11
64.1111
 21
62.6629
  0
LINE
  8
0
 10
64.1111
 20
62.6629
 11
63.9428
 21
62.7638
  0
LINE
  8
0
 10
63.9428
 20
62.7638
 11
63.7654
 21
62.8478
  0
LINE
  8
0
 10
63.7654
 20
62.8478
 11
63.5806
 21
62.9139
  0
LINE
  8
0
 10
63.5806
 20
62.9139
 11
63.3902
 21
62.9616
  0
LINE
  8
0
 10
63.3902
 20
62.9616
 11
63.196
 21
62.9904
  0
LINE
  8
0
 10
63.196
 20
62.9904
 11
63
 21
63
  0
LINE
  8
0
 10
63
 20
63
 11
22
 21
63
  0
LINE
  8
0
 10
22
 20
63
 11
21.804
 21
62.9904
  0
LINE
  8
0
 10
21.804
 20
62.9904
 11
21.6098
 21
62.9616
  0
LINE
  8
0
 10
21.6098
 20
62.9616
 11
21.4194
 21
62.9139
  0
LINE
  8
0
 10
21.4194
 20
62.9139
 11
21.2346
 21
62.8478
  0
LINE
  8
0
 10
21.2346
 20
62.8478
 11
21.0572
 21
62.7638
  0
LINE
  8
0
 10
21.0572
 20
62.7638
 11
20.8889
 21
62.6629
  0
LINE
  8
0
 10
20.8889
 20
62.6629
 11
20.7312
 21
62.546
  0
LINE
  8
0
 10
20.7312
 20
62.546
 11
20.5858
 21
62.4142
  0
LINE
  8
0
 10
20.5858
 20
62.4142
 11
20.454
 21
62.2688
  0
LINE
  8
0
 10
20.454
 20
62.2688
 11
20.3371
 21
62.1111
  0
LINE
  8
0
 10
20.3371
 20
62.1111
 11
20.2362
 21
61.9428
  0
LINE
  8
0
 10
20.2362
 20
61.9428
 11
20.1522
 21
61.7654
  0
LINE
  8
0
 10
20.1522
 20
61.7654
 11
20.0861
 21
61.5806
  0
LINE
  8
0
 10
20.0861
 20
61.5806
 11
20.0384
 21
61.3902
  0
LINE
  8
0
 10
20.0384
 20
61.3902
 11
20.0096
 21
61.196
  0
LINE
  8
0
 10
20.0096
 20
61.196
 11
20
 21
61
  0
LINE
  8
0
 10
20
 20
61
 11
20
 21
43.049
  0
LINE
  8
0
 10
20
 20
43.049
 11
19.9977
 21
43.0023
  0
LINE
  8
0
 10
19.9977
 20
43.0023
 11
19.951
 21
43
  0
LINE
  8
0
 10
19.951
 20
43
 11
-6
 21
43
  0
LINE
  8
0
 10
-6
 20
43
 11
-6.19603
 21
42.9904
  0
LINE
  8
0
 10
-6.19603
 20
42.9904
 11
-6.39018
 21
42.9616
  0
LINE
  8
0
 10
-6.39018
 20
42.9616
 11
-6.58057
 21
42.9139
  0
LINE
  8
0
 10
-6.58057
 20
42.9139
 11
-6.76537
 21
42.8478
  0
LINE
  8
0
 10
-6.76537
 20
42.8478
 11
-6.94279
 21
42.7638
  0
LINE
  8
0
 10
-6.94279
 20
42.7638
 11
-7.11115
 21
42.6629
  0
LINE
  8
0
 10
-7.11115
 20
42.6629
 11
-7.26878
 21
42.546
  0
LINE
  8
0
 10
-7.26878
 20
42.546
 11
-7.41422
 21
42.4142
  0
LINE
  8
0
 10
-7.41422
 20
42.4142
 11
-7.54602
 21
42.2688
  0
LINE
  8
0
 10
-7.54602
 20
42.2688
 11
-7.66293
 21
42.1111
  0
LINE
  8
0
 10
-7.66293
 20
42.1111
 11
-7.76384
 21
41.9428
  0
LINE
  8
0
 10
-7.76384
 20
41.9428
 11
-7.84776
 21
41.7654
  0
LINE
  8
0
 10
-7.84776
 20
41.7654
 11
-7.91388
 21
41.5806
  0
LINE
  8
0
 10
-7.91388
 20
41.5806
 11
-7.96156
 21
41.3902
  0
LINE
  8
0
 10
-7.96156
 20
41.3902
 11
-7.99037
 21
41.196
  0
LINE
  8
0
 10
-7.99037
 20
41.196
 11
-8
 21
41
  0
LINE
  8
0
 10
-8
 20
41
 11
-8
 21
2.75
  0
LINE
  8
0
 10
-5.8
 20
2.95
 11
-5.8
 21
40.8
  0
LINE
  8
0
 10
-5.8
 20
40.8
 11
22.2
 21
40.8
  0
LINE
  8
0
 10
22.2
 20
40.8
 11
22.2
 21
60.8
  0
LINE
  8
0
 10
22.2
 20
60.8
 11
62.8
 21
60.8
  0
LINE
  8
0
 10
62.8
 20
60.8
 11
62.8
 21
40.8
  0
LINE
  8
0
 10
62.8
 20
40.8
 11
74
 21
40.8
  0
LINE
  8
0
 10
74
 20
40.8
 11
74
 21
30
  0
LINE
  8
0
 10
74
 20
30
 11
82.8
 21
30
  0
LINE
  8
0
 10
82.8
 20
30
 11
82.8
 21
2.95
  0
LINE
  8
0
 10
82.8
 20
2.95
 11
-5.8
 21
2.95
  0
LINE
  8
0
 10
-5.5
 20
6.75
 11
-5.43275
 21
6.06718
  0
LINE
  8
0
 10
-5.43275
 20
6.06718
 11
-5.23358
 21
5.41061
  0
LINE
  8
0
 10
-5.23358
 20
5.41061
 11
-4.91014
 21
4.8055
  0
LINE
  8
0
 10
-4.91014
 20
4.8055
 11
-4.47487
 21
4.27513
  0
LINE
  8
0
 10
-4.47487
 20
4.27513
 11
-3.9445
 21
3.83986
  0
LINE
  8
0
 10
-3.9445
 20
3.83986
 11
-3.33939
 21
3.51642
  0
LINE
  8
0
 10
-3.33939
 20
3.51642
 11
-2.68282
 21
3.31725
  0
LINE
  8
0
 10
-2.68282
 20
3.31725
 11
-2
 21
3.25
  0
LINE
  8
0
 10
-2
 20
3.25
 11
-1.31718
 21
3.31725
  0
LINE
  8
0
 10
-1.31718
 20
3.31725
 11
-0.660607
 21
3.51642
  0
LINE
  8
0
 10
-0.660607
 20
3.51642
 11
-0.0555038
 21
3.83986
  0
LINE
  8
0
 10
-0.0555038
 20
3.83986
 11
0.474874
 21
4.27513
  0
LINE
  8
0
 10
0.474874
 20
4.27513
 11
0.910143
 21
4.8055
  0
LINE
  8
0
 10
0.910143
 20
4.8055
 11
1.23358
 21
5.41061
  0
LINE
  8
0
 10
1.23358
 20
5.41061
 11
1.43275
 21
6.06718
  0
LINE
  8
0
 10
1.43275
 20
6.06718
 11
1.5
 21
6.75
  0
LINE
  8
0
 10
1.5
 20
6.75
 11
1.43275
 21
7.43282
  0
LINE
  8
0
 10
1.43275
 20
7.43282
 11
1.23358
 21
8.08939
  0
LINE
  8
0
 10
1.23358
 20
8.08939
 11
0.910143
 21
8.6945
  0
LINE
  8
0
 10
0.910143
 20
8.6945
 11
0.474874
 21
9.22487
  0
LINE
  8
0
 10
0.474874
 20
9.22487
 11
-0.0555038
 21
9.66014
  0
LINE
  8
0
 10
-0.0555038
 20
9.66014
 11
-0.660607
 21
9.98358
  0
LINE
  8
0
 10
-0.660607
 20
9.98358
 11
-1.31718
 21
10.1827
  0
LINE
  8
0
 10
-1.31718
 20
10.1827
 11
-2
 21
10.25
  0
LINE
  8
0
 10
-2
 20
10.25
 11
-2.68282
 21
10.1827
  0
LINE
  8
0
 10
-2.68282
 20
10.1827
 11
-3.33939
 21
9.98358
  0
LINE
  8
0
 10
-3.33939
 20
9.98358
 11
-3.9445
 21
9.66014
  0
LINE
  8
0
 10
-3.9445
 20
9.66014
 11
-4.47487
 21
9.22487
  0
LINE
  8
0
 10
-4.47487
 20
9.22487
 11
-4.91014
 21
8.6945
  0
LINE
  8
0
 10
-4.91014
 20
8.6945
 11
-5.23358
 21
8.08939
  0
LINE
  8
0
 10
-5.23358
 20
8.08939
 11
-5.43275
 21
7.43282
  0
LINE
  8
0
 10
-5.43275
 20
7.43282
 11
-5.5
 21
6.75
  0
LINE
  8
0
 10
-5.5
 20
37
 11
-5.43275
 21
36.3172
  0
LINE
  8
0
 10
-5.43275
 20
36.3172
 11
-5.23358
 21
35.6606
  0
LINE
  8
0
 10
-5.23358
 20
35.6606
 11
-4.91014
 21
35.0555
  0
LINE
  8
0
 10
-4.91014
 20
35.0555
 11
-4.47487
 21
34.5251
  0
LINE
  8
0
 10
-4.47487
 20
34.5251
 11
-3.9445
 21
34.0899
  0
LINE
  8
0
 10
-3.9445
 20
34.0899
 11
-3.33939
 21
33.7664
  0
LINE
  8
0
 10
-3.33939
 20
33.7664
 11
-2.68282
 21
33.5673
  0
LINE
  8
0
 10
-2.68282
 20
33.5673
 11
-2
 21
33.5
  0
LINE
  8
0
 10
-2
 20
33.5
 11
-1.31718
 21
33.5673
  0
LINE
  8
0
 10
-1.31718
 20
33.5673
 11
-0.660607
 21
33.7664
  0
LINE
  8
0
 10
-0.660607
 20
33.7664
 11
-0.0555038
 21
34.0899
  0
LINE
  8
0
 10
-0.0555038
 20
34.0899
 11
0.474874
 21
34.5251
  0
LINE
  8
0
 10
0.474874
 20
34.5251
 11
0.910143
 21
35.0555
  0
LINE
  8
0
 10
0.910143
 20
35.0555
 11
1.23358
 21
35.6606
  0
LINE
  8
0
 10
1.23358
 20
35.6606
 11
1.43275
 21
36.3172
  0
LINE
  8
0
 10
1.43275
 20
36.3172
 11
1.5
 21
37
  0
LINE
  8
0
 10
1.5
 20
37
 11
1.43275
 21
37.6828
  0
LINE
  8
0
 10
1.43275
 20
37.6828
 11
1.23358
 21
38.3394
  0
LINE
  8
0
 10
1.23358
 20
38.3394
 11
0.910143
 21
38.9445
  0
LINE
  8
0
 10
0.910143
 20
38.9445
 11
0.474874
 21
39.4749
  0
LINE
  8
0
 10
0.474874
 20
39.4749
 11
-0.0555038
 21
39.9101
  0
LINE
  8
0
 10
-0.0555038
 20
39.9101
 11
-0.660607
 21
40.2336
  0
LINE
  8
0
 10
-0.660607
 20
40.2336
 11
-1.31718
 21
40.4327
  0
LINE
  8
0
 10
-1.31718
 20
40.4327
 11
-2
 21
40.5
  0
LINE
  8
0
 10
-2
 20
40.5
 11
-2.68282
 21
40.4327
  0
LINE
  8
0
 10
-2.68282
 20
40.4327
 11
-3.33939
 21
40.2336
  0
LINE
  8
0
 10
-3.33939
 20
40.2336
 11
-3.9445
 21
39.9101
  0
LINE
  8
0
 10
-3.9445
 20
39.9101
 11
-4.47487
 21
39.4749
  0
LINE
  8
0
 10
-4.47487
 20
39.4749
 11
-4.91014
 21
38.9445
  0
LINE
  8
0
 10
-4.91014
 20
38.9445
 11
-5.23358
 21
38.3394
  0
LINE
  8
0
 10
-5.23358
 20
38.3394
 11
-5.43275
 21
37.6828
  0
LINE
  8
0
 10
-5.43275
 20
37.6828
 11
-5.5
 21
37
  0
LINE
  8
0
 10
22.5
 20
57
 11
22.5673
 21
56.3172
  0
LINE
  8
0
 10
22.5673
 20
56.3172
 11
22.7664
 21
55.6606
  0
LINE
  8
0
 10
22.7664
 20
55.6606
 11
23.0899
 21
55.0555
  0
LINE
  8
0
 10
23.0899
 20
55.0555
 11
23.5251
 21
54.5251
  0
LINE
  8
0
 10
23.5251
 20
54.5251
 11
24.0555
 21
54.0899
  0
LINE
  8
0
 10
24.0555
 20
54.0899
 11
24.6606
 21
53.7664
  0
LINE
  8
0
 10
24.6606
 20
53.7664
 11
25.3172
 21
53.5673
  0
LINE
  8
0
 10
25.3172
 20
53.5673
 11
26
 21
53.5
  0
LINE
  8
0
 10
26
 20
53.5
 11
26.6828
 21
53.5673
  0
LINE
  8
0
 10
26.6828
 20
53.5673
 11
27.3394
 21
53.7664
  0
LINE
  8
0
 10
27.3394
 20
53.7664
 11
27.9445
 21
54.0899
  0
LINE
  8
0
 10
27.9445
 20
54.0899
 11
28.4749
 21
54.5251
  0
LINE
  8
0
 10
28.4749
 20
54.5251
 11
28.9101
 21
55.0555
  0
LINE
  8
0
 10
28.9101
 20
55.0555
 11
29.2336
 21
55.6606
  0
LINE
  8
0
 10
29.2336
 20
55.6606
 11
29.4327
 21
56.3172
  0
LINE
  8
0
 10
29.4327
 20
56.3172
 11
29.5
 21
57
  0
LINE
  8
0
 10
29.5
 20
57
 11
29.4327
 21
57.6828
  0
LINE
  8
0
 10
29.4327
 20
57.6828
 11
29.2336
 21
58.3394
  0
LINE
  8
0
 10
29.2336
 20
58.3394
 11
28.9101
 21
58.9445
  0
LINE
  8
0
 10
28.9101
 20
58.9445
 11
28.4749
 21
59.4749
  0
LINE
  8
0
 10
28.4749
 20
59.4749
 11
27.9445
 21
59.9101
  0
LINE
  8
0
 10
27.9445
 20
59.9101
 11
27.3394
 21
60.2336
  0
LINE
  8
0
 10
27.3394
 20
60.2336
 11
26.6828
 21
60.4327
  0
LINE
  8
0
 10
26.6828
 20
60.4327
 11
26
 21
60.5
  0
LINE
  8
0
 10
26
 20
60.5
 11
25.3172
 21
60.4327
  0
LINE
  8
0
 10
25.3172
 20
60.4327
 11
24.6606
 21
60.2336
  0
LINE
  8
0
 10
24.6606
 20
60.2336
 11
24.0555
 21
59.9101
  0
LINE
  8
0
 10
24.0555
 20
59.9101
 11
23.5251
 21
59.4749
  0
LINE
  8
0
 10
23.5251
 20
59.4749
 11
23.0899
 21
58.9445
  0
LINE
  8
0
 10
23.0899
 20
58.9445
 11
22.7664
 21
58.3394
  0
LINE
  8
0
 10
22.7664
 20
58.3394
 11
22.5673
 21
57.6828
  0
LINE
  8
0
 10
22.5673
 20
57.6828
 11
22.5
 21
57
  0
LINE
  8
0
 10
55.5
 20
57
 11
55.5673
 21
56.3172
  0
LINE
  8
0
 10
55.5673
 20
56.3172
 11
55.7664
 21
55.6606
  0
LINE
  8
0
 10
55.7664
 20
55.6606
 11
56.0899
 21
55.0555
  0
LINE
  8
0
 10
56.0899
 20
55.0555
 11
56.5251
 21
54.5251
  0
LINE
  8
0
 10
56.5251
 20
54.5251
 11
57.0555
 21
54.0899
  0
LINE
  8
0
 10
57.0555
 20
54.0899
 11
57.6606
 21
53.7664
  0
LINE
  8
0
 10
57.6606
 20
53.7664
 11
58.3172
 21
53.5673
  0
LINE
  8
0
 10
58.3172
 20
53.5673
 11
59
 21
53.5
  0
LINE
  8
0
 10
59
 20
53.5
 11
59.6828
 21
53.5673
  0
LINE
  8
0
 10
59.6828
 20
53.5673
 11
60.3394
 21
53.7664
  0
LINE
  8
0
 10
60.3394
 20
53.7664
 11
60.9445
 21
54.0899
  0
LINE
  8
0
 10
60.9445
 20
54.0899
 11
61.4749
 21
54.5251
  0
LINE
  8
0
 10
61.4749
 20
54.5251
 11
61.9101
 21
55.0555
  0
LINE
  8
0
 10
61.9101
 20
55.0555
 11
62.2336
 21
55.6606
  0
LINE
  8
0
 10
62.2336
 20
55.6606
 11
62.4327
 21
56.3172
  0
LINE
  8
0
 10
62.4327
 20
56.3172
 11
62.5
 21
57
  0
LINE
  8
0
 10
62.5
 20
57
 11
62.4327
 21
57.6828
  0
LINE
  8
0
 10
62.4327
 20
57.6828
 11
62.2336
 21
58.3394
  0
LINE
  8
0
 10
62.2336
 20
58.3394
 11
61.9101
 21
58.9445
  0
LINE
  8
0
 10
61.9101
 20
58.9445
 11
61.4749
 21
59.4749
  0
LINE
  8
0
 10
61.4749
 20
59.4749
 11
60.9445
 21
59.9101
  0
LINE
  8
0
 10
60.9445
 20
59.9101
 11
60.3394
 21
60.2336
  0
LINE
  8
0
 10
60.3394
 20
60.2336
 11
59.6828
 21
60.4327
  0
LINE
  8
0
 10
59.6828
 20
60.4327
 11
59
 21
60.5
  0
LINE
  8
0
 10
59
 20
60.5
 11
58.3172
 21
60.4327
  0
LINE
  8
0
 10
58.3172
 20
60.4327
 11
57.6606
 21
60.2336
  0
LINE
  8
0
 10
57.6606
 20
60.2336
 11
57.0555
 21
59.9101
  0
LINE
  8
0
 10
57.0555
 20
59.9101
 11
56.5251
 21
59.4749
  0
LINE
  8
0
 10
56.5251
 20
59.4749
 11
56.0899
 21
58.9445
  0
LINE
  8
0
 10
56.0899
 20
58.9445
 11
55.7664
 21
58.3394
  0
LINE
  8
0
 10
55.7664
 20
58.3394
 11
55.5673
 21
57.6828
  0
LINE
  8
0
 10
55.5673
 20
57.6828
 11
55.5
 21
57
  0
LINE
  8
0
 10
75.5
 20
6.75
 11
75.5673
 21
6.06718
  0
LINE
  8
0
 10
75.5673
 20
6.06718
 11
75.7664
 21
5.41061
  0
LINE
  8
0
 10
75.7664
 20
5.41061
 11
76.0899
 21
4.8055
  0
LINE
  8
0
 10
76.0899
 20
4.8055
 11
76.5251
 21
4.27513
  0
LINE
  8
0
 10
76.5251
 20
4.27513
 11
77.0555
 21
3.83986
  0
LINE
  8
0
 10
77.0555
 20
3.83986
 11
77.6606
 21
3.51642
  0
LINE
  8
0
 10
77.6606
 20
3.51642
 11
78.3172
 21
3.31725
  0
LINE
  8
0
 10
78.3172
 20
3.31725
 11
79
 21
3.25
  0
LINE
  8
0
 10
79
 20
3.25
 11
79.6828
 21
3.31725
  0
LINE
  8
0
 10
79.6828
 20
3.31725
 11
80.3394
 21
3.51642
  0
LINE
  8
0
 10
80.3394
 20
3.51642
 11
80.9445
 21
3.83986
  0
LINE
  8
0
 10
80.9445
 20
3.83986
 11
81.4749
 21
4.27513
  0
LINE
  8
0
 10
81.4749
 20
4.27513
 11
81.9101
 21
4.8055
  0
LINE
  8
0
 10
81.9101
 20
4.8055
 11
82.2336
 21
5.41061
  0
LINE
  8
0
 10
82.2336
 20
5.41061
 11
82.4327
 21
6.06718
  0
LINE
  8
0
 10
82.4327
 20
6.06718
 11
82.5
 21
6.75
  0
LINE
  8
0
 10
82.5
 20
6.75
 11
82.4327
 21
7.43282
  0
LINE
  8
0
 10
82.4327
 20
7.43282
 11
82.2336
 21
8.08939
  0
LINE
  8
0
 10
82.2336
 20
8.08939
 11
81.9101
 21
8.6945
  0
LINE
  8
0
 10
81.9101
 20
8.6945
 11
81.4749
 21
9.22487
  0
LINE
  8
0
 10
81.4749
 20
9.22487
 11
80.9445
 21
9.66014
  0
LINE
  8
0
 10
80.9445
 20
9.66014
 11
80.3394
 21
9.98358
  0
LINE
  8
0
 10
80.3394
 20
9.98358
 11
79.6828
 21
10.1827
  0
LINE
  8
0
 10
79.6828
 20
10.1827
 11
79
 21
10.25
  0
LINE
  8
0
 10
79
 20
10.25
 11
78.3172
 21
10.1827
  0
LINE
  8
0
 10
78.3172
 20
10.1827
 11
77.6606
 21
9.98358
  0
LINE
  8
0
 10
77.6606
 20
9.98358
 11
77.0555
 21
9.66014
  0
LINE
  8
0
 10
77.0555
 20
9.66014
 11
76.5251
 21
9.22487
  0
LINE
  8
0
 10
76.5251
 20
9.22487
 11
76.0899
 21
8.6945
  0
LINE
  8
0
 10
76.0899
 20
8.6945
 11
75.7664
 21
8.08939
  0
LINE
  8
0
 10
75.7664
 20
8.08939
 11
75.5673
 21
7.43282
  0
LINE
  8
0
 10
75.5673
 20
7.43282
 11
75.5
 21
6.75
  0
ENDSEC
  0
SECTION
  2
OBJECTS
  0
DICTIONARY
  0
ENDSEC
  0
EOF
