  0
SECTION
  2
BLOCKS
  0
ENDSEC
  0
SECTION
  2
ENTITIES
  0
LINE
  8
0
 10
-8
 20
-89.5
 11
-5.8
 21
-89.5
  0
LINE
  8
0
 10
-5.8
 20
-89.5
 11
-5.8
 21
-87
  0
LINE
  8
0
 10
-5.8
 20
-87
 11
-4.60001
 21
-87
  0
LINE
  8
0
 10
-4.60001
 20
-87
 11
-4.60001
 21
-83.5
  0
LINE
  8
0
 10
-4.60001
 20
-83.5
 11
-5.8
 21
-83.5
  0
LINE
  8
0
 10
-5.8
 20
-83.5
 11
-5.8
 21
-5.7
  0
LINE
  8
0
 10
-5.8
 20
-5.7
 11
-5.5
 21
-5.7
  0
LINE
  8
0
 10
-5.5
 20
-5.7
 11
-5.5
 21
-3.7
  0
LINE
  8
0
 10
-5.5
 20
-3.7
 11
-4.39999
 21
-3.7
  0
LINE
  8
0
 10
-4.39999
 20
-3.7
 11
-4.39999
 21
-2.2
  0
LINE
  8
0
 10
-4.39999
 20
-2.2
 11
-3.28525
 21
-2.2
  0
LINE
  8
0
 10
-3.28525
 20
-2.2
 11
-3.28525
 21
-86.7
  0
LINE
  8
0
 10
-3.28525
 20
-86.7
 11
-0.714744
 21
-86.7
  0
LINE
  8
0
 10
-0.714744
 20
-86.7
 11
-0.714744
 21
-2.2
  0
LINE
  8
0
 10
-0.714744
 20
-2.2
 11
3.56876
 21
-2.2
  0
LINE
  8
0
 10
3.56876
 20
-2.2
 11
3.56876
 21
0
  0
LINE
  8
0
 10
3.56876
 20
0
 11
-8
 21
0
  0
LINE
  8
0
 10
-8
 20
0
 11
-8
 21
-89.5
  0
LINE
  8
0
 10
-5.5
 20
-89.6
 11
82.5
 21
-89.6
  0
LINE
  8
0
 10
82.5
 20
-89.6
 11
82.5
 21
-87.4
  0
LINE
  8
0
 10
82.5
 20
-87.4
 11
-5.5
 21
-87.4
  0
LINE
  8
0
 10
-5.5
 20
-87.4
 11
-5.5
 21
-89.6
  0
LINE
  8
0
 10
5.56728
 20
-2.2
 11
13.6545
 21
-2.2
  0
LINE
  8
0
 10
13.6545
 20
-2.2
 11
13.6545
 21
0
  0
LINE
  8
0
 10
13.6545
 20
0
 11
5.56728
 21
0
  0
LINE
  8
0
 10
5.56728
 20
0
 11
5.56728
 21
-2.2
  0
LINE
  8
0
 10
20.6321
 20
-2.2
 11
28.7194
 21
-2.2
  0
LINE
  8
0
 10
28.7194
 20
-2.2
 11
28.7194
 21
0
  0
LINE
  8
0
 10
28.7194
 20
0
 11
20.6321
 21
0
  0
LINE
  8
0
 10
20.6321
 20
0
 11
20.6321
 21
-2.2
  0
LINE
  8
0
 10
35.697
 20
-2.2
 11
43.7842
 21
-2.2
  0
LINE
  8
0
 10
43.7842
 20
-2.2
 11
43.7842
 21
0
  0
LINE
  8
0
 10
43.7842
 20
0
 11
35.697
 21
0
  0
LINE
  8
0
 10
35.697
 20
0
 11
35.697
 21
-2.2
  0
LINE
  8
0
 10
50.7618
 20
-2.2
 11
58.8
 21
-2.2
  0
LINE
  8
0
 10
58.8
 20
-2.2
 11
58.8
 21
-3.7
  0
LINE
  8
0
 10
58.8
 20
-3.7
 11
59.9
 21
-3.7
  0
LINE
  8
0
 10
59.9
 20
-3.7
 11
59.9
 21
-5.7
  0
LINE
  8
0
 10
59.9
 20
-5.7
 11
60.9
 21
-5.7
  0
LINE
  8
0
 10
60.9
 20
-5.7
 11
60.9
 21
0
  0
LINE
  8
0
 10
60.9
 20
0
 11
50.7618
 21
0
  0
LINE
  8
0
 10
50.7618
 20
0
 11
50.7618
 21
-2.2
  0
LINE
  8
0
 10
65.8267
 20
-2.2
 11
77.7147
 21
-2.2
  0
LINE
  8
0
 10
77.7147
 20
-2.2
 11
77.7147
 21
-86.7
  0
LINE
  8
0
 10
77.7147
 20
-86.7
 11
80.2853
 21
-86.7
  0
LINE
  8
0
 10
80.2853
 20
-86.7
 11
80.2853
 21
-2.2
  0
LINE
  8
0
 10
80.2853
 20
-2.2
 11
82.8
 21
-2.2
  0
LINE
  8
0
 10
82.8
 20
-2.2
 11
82.8
 21
-83.5
  0
LINE
  8
0
 10
82.8
 20
-83.5
 11
81.6
 21
-83.5
  0
LINE
  8
0
 10
81.6
 20
-83.5
 11
81.6
 21
-87
  0
LINE
  8
0
 10
81.6
 20
-87
 11
82.8
 21
-87
  0
LINE
  8
0
 10
82.8
 20
-87
 11
82.8
 21
-89.5
  0
LINE
  8
0
 10
82.8
 20
-89.5
 11
85
 21
-89.5
  0
LINE
  8
0
 10
85
 20
-89.5
 11
85
 21
-86.8
  0
LINE
  8
0
 10
85
 20
-86.8
 11
93
 21
-86.8
  0
LINE
  8
0
 10
93
 20
-86.8
 11
93
 21
0
  0
LINE
  8
0
 10
93
 20
0
 11
65.8267
 21
0
  0
LINE
  8
0
 10
65.8267
 20
0
 11
65.8267
 21
-2.2
  0
LINE
  8
0
 10
86.8352
 20
-51.75
 11
87.1148
 21
-51.075
  0
LINE
  8
0
 10
87.1148
 20
-51.075
 11
86.8352
 21
-50.4
  0
LINE
  8
0
 10
86.8352
 20
-50.4
 11
87.4693
 21
-48.8693
  0
LINE
  8
0
 10
87.4693
 20
-48.8693
 11
89
 21
-48.2352
  0
LINE
  8
0
 10
89
 20
-48.2352
 11
90.5307
 21
-48.8693
  0
LINE
  8
0
 10
90.5307
 20
-48.8693
 11
91.1648
 21
-50.4
  0
LINE
  8
0
 10
91.1648
 20
-50.4
 11
90.8852
 21
-51.075
  0
LINE
  8
0
 10
90.8852
 20
-51.075
 11
91.1648
 21
-51.75
  0
LINE
  8
0
 10
91.1648
 20
-51.75
 11
90.5307
 21
-53.2807
  0
LINE
  8
0
 10
90.5307
 20
-53.2807
 11
89
 21
-53.9148
  0
LINE
  8
0
 10
89
 20
-53.9148
 11
87.4693
 21
-53.2807
  0
LINE
  8
0
 10
87.4693
 20
-53.2807
 11
86.8352
 21
-51.75
  0
LINE
  8
0
 10
86.8352
 20
-44.75
 11
87.1148
 21
-44.075
  0
LINE
  8
0
 10
87.1148
 20
-44.075
 11
86.8352
 21
-43.4
  0
LINE
  8
0
 10
86.8352
 20
-43.4
 11
87.4693
 21
-41.8693
  0
LINE
  8
0
 10
87.4693
 20
-41.8693
 11
89
 21
-41.2352
  0
LINE
  8
0
 10
89
 20
-41.2352
 11
90.5307
 21
-41.8693
  0
LINE
  8
0
 10
90.5307
 20
-41.8693
 11
91.1648
 21
-43.4
  0
LINE
  8
0
 10
91.1648
 20
-43.4
 11
90.8852
 21
-44.075
  0
LINE
  8
0
 10
90.8852
 20
-44.075
 11
91.1648
 21
-44.75
  0
LINE
  8
0
 10
91.1648
 20
-44.75
 11
90.5307
 21
-46.2807
  0
LINE
  8
0
 10
90.5307
 20
-46.2807
 11
89
 21
-46.9148
  0
LINE
  8
0
 10
89
 20
-46.9148
 11
87.4693
 21
-46.2807
  0
LINE
  8
0
 10
87.4693
 20
-46.2807
 11
86.8352
 21
-44.75
  0
LINE
  8
0
 10
86.8352
 20
-37.75
 11
87.1148
 21
-37.075
  0
LINE
  8
0
 10
87.1148
 20
-37.075
 11
86.8352
 21
-36.4
  0
LINE
  8
0
 10
86.8352
 20
-36.4
 11
87.4693
 21
-34.8693
  0
LINE
  8
0
 10
87.4693
 20
-34.8693
 11
89
 21
-34.2352
  0
LINE
  8
0
 10
89
 20
-34.2352
 11
90.5307
 21
-34.8693
  0
LINE
  8
0
 10
90.5307
 20
-34.8693
 11
91.1648
 21
-36.4
  0
LINE
  8
0
 10
91.1648
 20
-36.4
 11
90.8852
 21
-37.075
  0
LINE
  8
0
 10
90.8852
 20
-37.075
 11
91.1648
 21
-37.75
  0
LINE
  8
0
 10
91.1648
 20
-37.75
 11
90.5307
 21
-39.2807
  0
LINE
  8
0
 10
90.5307
 20
-39.2807
 11
89
 21
-39.9148
  0
LINE
  8
0
 10
89
 20
-39.9148
 11
87.4693
 21
-39.2807
  0
LINE
  8
0
 10
87.4693
 20
-39.2807
 11
86.8352
 21
-37.75
  0
ENDSEC
  0
SECTION
  2
OBJECTS
  0
DICTIONARY
  0
ENDSEC
  0
EOF
